<?xml version="1.0" encoding="utf-8"?>
<!-- Generator: Adobe Illustrator 26.3.1, SVG Export Plug-In . SVG Version: 6.00 Build 0)  -->
<svg version="1.1" id="Layer_1" xmlns="http://www.w3.org/2000/svg" xmlns:xlink="http://www.w3.org/1999/xlink" x="0px" y="0px"
	 viewBox="0 0 189.7 80" style="enable-background:new 0 0 189.7 80;" xml:space="preserve">
<style type="text/css">
	.st0{fill:#FFFFFF;}
</style>
<g>
	<path class="st0" d="M135.2,5.1c-1.5-1.6-3.3-2.8-5.3-3.7c-2-0.9-4-1.4-6.1-1.4c-2,0-3.9,0.5-5.9,1.4c-2,0.9-3.7,2.2-5.3,3.7
		c-1.6,1.6-2.9,3.5-3.8,5.6c-1,2.2-1.5,4.5-1.5,7.1c0,2.3,0.4,4.5,1.2,6.7c0.8,2.1,2,4,3.4,5.7c1.5,1.6,3.2,3,5.3,3.9
		c2,1,4.2,1.5,6.6,1.5c2.3,0,4.5-0.5,6.5-1.5c2-1,3.8-2.4,5.3-4c1.5-1.6,2.7-3.6,3.5-5.7c0.9-2.1,1.3-4.3,1.3-6.5
		c0-2.5-0.5-4.9-1.4-7.1C138,8.6,136.8,6.7,135.2,5.1z M134.6,17.8c0,2.8-0.2,5.3-0.6,7.4c-0.4,2.1-1,3.8-1.9,5.2
		c-0.9,1.4-2,2.4-3.3,3.1c-1.4,0.7-3.1,1-5,1c-2,0-3.7-0.3-5.1-1c-1.3-0.7-2.5-1.7-3.3-3.1c-0.9-1.4-1.5-3.2-1.9-5.2
		c-0.4-2.1-0.6-4.6-0.6-7.4c0-2.2,0.1-4.3,0.4-6.3c0.3-2,0.8-3.8,1.6-5.4c0.8-1.6,1.9-2.8,3.3-3.7c1.4-0.9,3.2-1.4,5.5-1.4
		s4.1,0.5,5.5,1.4c1.4,0.9,2.5,2.2,3.3,3.7c0.8,1.6,1.3,3.4,1.6,5.4C134.5,13.5,134.6,15.6,134.6,17.8z M82.6,34.8H67.1v-1h5.2v-32
		h-5.2v-1h15.5v1h-5.2V17h15.3V1.8h-5.2v-1H103v1h-5.2v32h5.2v1H87.5v-1h5.2V18H77.4v15.9h5.2V34.8z M40.8,30.9
		c-1.5-1.5-2.9-3.4-3.9-5.5c-1-2.1-1.6-4.6-1.6-7.4c0-2.4,0.4-4.7,1.3-6.8C37.5,9,38.7,7,40.2,5.4c1.5-1.6,3.3-3,5.4-3.9
		c2-1,4.3-1.5,6.8-1.5c1,0,1.9,0.1,2.6,0.3c0.8,0.2,1.4,0.4,2,0.6c0.6,0.2,1.1,0.4,1.6,0.6c0.5,0.2,0.9,0.3,1.4,0.3
		c0.6,0,1-0.1,1.2-0.3c0.3-0.2,0.5-0.4,0.7-0.7l0-0.1H63v9.8h-0.8l0-0.1c-0.3-1.2-0.6-2.4-1.1-3.5c-0.4-1.1-1-2.2-1.8-3
		c-0.8-0.9-1.8-1.6-2.9-2.1C55.1,1.3,53.6,1,51.9,1c-1.6,0-3.1,0.3-4.2,0.8c-1.2,0.5-2.2,1.2-3,2c-0.8,0.8-1.4,1.8-1.9,3
		c-0.5,1.1-0.8,2.3-1.1,3.6c-0.2,1.3-0.4,2.6-0.5,3.9c-0.1,1.3-0.1,2.5-0.1,3.7c0,3.3,0.3,6,0.8,8.2c0.5,2.1,1.3,3.9,2.2,5.1
		c0.9,1.2,2.1,2.1,3.4,2.6c1.3,0.5,2.8,0.7,4.4,0.7c2.1,0,3.8-0.3,5-0.9c1.3-0.6,2.3-1.4,3-2.3c0.8-0.9,1.4-2,1.8-3.2
		c0.4-1.2,0.8-2.4,1.1-3.6l0-0.1h0.8v10.4h-0.9l0-0.1c-0.2-0.2-0.5-0.5-0.7-0.7c-0.3-0.2-0.7-0.3-1.2-0.3c-0.4,0-0.9,0.1-1.5,0.3
		c-0.5,0.2-1.2,0.4-1.9,0.6c-0.7,0.2-1.5,0.4-2.4,0.6c-0.9,0.2-1.9,0.3-3,0.3c-2,0-3.9-0.4-5.8-1.1C44.3,33.7,42.5,32.5,40.8,30.9z
		 M29,34.8H0v-1h5.2v-32H0v-1h27.3v8.5h-0.8l0-0.1C26,8,25.6,7,25.1,6c-0.5-0.9-1-1.7-1.7-2.3c-0.6-0.6-1.4-1.1-2.3-1.4
		c-0.9-0.3-2-0.5-3.2-0.5h-7.6v14.3h2.9c1,0,1.9-0.1,2.6-0.3c0.7-0.2,1.3-0.5,1.8-1c0.5-0.5,0.9-1.2,1.3-2.1c0.4-0.9,0.7-2,1.1-3.5
		l0-0.1h0.8v15h-0.8l0-0.1c-0.2-1-0.5-1.8-0.7-2.6c-0.2-0.8-0.6-1.6-1-2.2c-0.4-0.6-1-1.1-1.6-1.5c-0.7-0.4-1.6-0.6-2.7-0.6h-3.6
		v16.7H19c1.7,0,3.1-0.4,4.2-1.1c1.1-0.7,2-1.6,2.8-2.6c0.7-1,1.2-2.1,1.6-3.1c0.3-1.1,0.6-2,0.7-2.7l0-0.1H29V34.8z M138.6,64.6
		c0.6,1.1,0.9,2.4,0.9,4.1c0,1.5-0.3,2.9-0.8,4.3c-0.6,1.4-1.4,2.6-2.4,3.6c-1,1-2.3,1.9-3.8,2.5c-1.5,0.6-3.2,0.9-5.1,0.9
		c-0.6,0-1.2,0-1.7,0c-0.5,0-1-0.1-1.4-0.1c-0.4-0.1-0.9-0.1-1.3-0.2c-0.4-0.1-0.9-0.2-1.5-0.4c-0.7-0.2-1.3-0.4-2-0.7
		c-0.7-0.2-1.3-0.4-1.8-0.4c-0.4,0-0.7,0.1-0.8,0.2c-0.2,0.2-0.3,0.4-0.4,0.7l0,0.1h-1V68.8h0.8l0,0.1c0.3,1.7,0.8,3.1,1.3,4.3
		c0.5,1.1,1.1,2.1,1.8,2.8c0.6,0.7,1.3,1.3,2,1.7c0.7,0.4,1.4,0.7,2.1,0.9c0.7,0.2,1.4,0.3,2.1,0.3c0.7,0,1.3,0,1.9,0
		c1.6,0,3-0.2,4-0.7c1-0.5,1.9-1.1,2.5-1.9c0.6-0.7,1-1.6,1.3-2.4c0.2-0.9,0.4-1.7,0.4-2.4c0-1.1-0.2-2-0.6-2.8
		c-0.4-0.8-0.9-1.4-1.5-2c-0.6-0.5-1.3-1-2-1.3c-0.7-0.3-1.4-0.6-2.1-0.8L124,63c-2.6-0.8-4.5-1.9-5.8-3.2c-1.3-1.3-2-3.1-2-5.3
		c0-1.4,0.3-2.8,0.8-4c0.5-1.2,1.2-2.3,2.2-3.2c0.9-0.9,2-1.6,3.3-2.1c1.3-0.5,2.7-0.8,4.2-0.8c1.1,0,2,0.1,2.8,0.3
		c0.7,0.2,1.4,0.4,1.9,0.6l0.1,0c0.5,0.2,1,0.4,1.4,0.6c0.4,0.2,0.8,0.3,1.2,0.3c0.5,0,0.7-0.1,0.7-0.1c0.1-0.1,0.2-0.3,0.5-0.8
		l0-0.1h0.9v8.9h-0.9l0-0.1c-0.2-1.1-0.5-2.2-1-3.2c-0.4-1-1-2-1.7-2.7c-0.7-0.8-1.6-1.4-2.6-1.9c-1-0.5-2.2-0.7-3.5-0.7
		c-0.7,0-1.6,0.1-2.5,0.3c-0.9,0.2-1.7,0.5-2.5,1c-0.8,0.5-1.4,1.1-1.9,1.9c-0.5,0.8-0.8,1.8-0.8,3c0,1,0.2,1.8,0.6,2.5
		c0.4,0.7,0.9,1.3,1.5,1.7c0.6,0.5,1.3,0.9,2.1,1.2c0.8,0.3,1.6,0.6,2.4,0.9l5.7,1.8c0.6,0.2,1.4,0.4,2.3,0.8
		c0.9,0.3,1.8,0.8,2.7,1.4C137.2,62.7,138,63.6,138.6,64.6z M99.7,45.3h11.5v1h-5.2v22.8c0,1.3-0.1,2.6-0.4,3.7
		c-0.3,1.1-0.9,2.3-1.8,3.4c-0.9,1.2-2.1,2.1-3.6,2.8c-1.5,0.7-3.6,1.1-6,1.1c-3.8,0-6.7-1-8.7-2.8c-2-1.9-3-4.8-3-8.7V46.3h-5.2v-1
		h15.5v1h-5.2V69c0,1.9,0.2,3.5,0.5,4.8c0.3,1.3,0.8,2.3,1.4,3.1c0.6,0.8,1.4,1.3,2.4,1.7c0.9,0.3,2.1,0.5,3.3,0.5
		c1.7,0,3.3-0.3,4.6-0.8c1.3-0.5,2.5-1.4,3.4-2.7c0.3-0.4,0.6-0.8,0.8-1.2c0.2-0.4,0.4-0.9,0.6-1.4c0.2-0.5,0.3-1.2,0.4-2
		c0.1-0.8,0.1-1.7,0.1-2.8V46.3h-5.2V45.3z M68.1,49.6c-1.5-1.6-3.3-2.8-5.3-3.7c-2-0.9-4-1.4-6.1-1.4c-2,0-3.9,0.5-5.9,1.4
		c-2,0.9-3.7,2.2-5.3,3.7c-1.6,1.6-2.9,3.5-3.8,5.6c-1,2.2-1.5,4.5-1.5,7.1c0,2.3,0.4,4.5,1.2,6.7c0.8,2.1,2,4,3.4,5.7
		c1.5,1.6,3.2,3,5.3,3.9c2,1,4.2,1.5,6.6,1.5c2.3,0,4.5-0.5,6.5-1.5c2-1,3.8-2.4,5.2-4c1.5-1.6,2.7-3.6,3.5-5.7
		c0.9-2.1,1.3-4.3,1.3-6.5c0-2.5-0.5-4.9-1.4-7.1C70.9,53,69.6,51.2,68.1,49.6z M67.5,62.3c0,2.8-0.2,5.3-0.6,7.4
		c-0.4,2.1-1,3.8-1.9,5.2c-0.9,1.4-2,2.4-3.3,3.1c-1.4,0.7-3.1,1-5,1c-2,0-3.7-0.3-5.1-1c-1.3-0.7-2.5-1.7-3.3-3.1
		c-0.9-1.4-1.5-3.2-1.9-5.2c-0.4-2.1-0.6-4.6-0.6-7.4c0-2.2,0.1-4.3,0.4-6.3c0.3-2,0.8-3.8,1.6-5.4c0.8-1.6,1.9-2.8,3.3-3.7
		c1.4-0.9,3.2-1.4,5.5-1.4c2.2,0,4.1,0.5,5.5,1.4c1.4,0.9,2.5,2.2,3.3,3.7c0.8,1.6,1.3,3.4,1.6,5.4C67.3,58,67.5,60.1,67.5,62.3z
		 M20.4,45.3h15.5v1h-5.2v32h5.2v1H20.4v-1h5.2V62.4H10.3v15.9h5.2v1H0v-1h5.2v-32H0v-1h15.5v1h-5.2v15.1h15.3V46.3h-5.2V45.3z
		 M173.6,68.6v10.7h-29v-1h5.2v-32h-5.2v-1h27.2v8.5H171l0-0.1c-0.4-1.2-0.8-2.3-1.3-3.2c-0.5-0.9-1-1.7-1.7-2.3
		c-0.6-0.6-1.4-1.1-2.3-1.4c-0.9-0.3-2-0.5-3.2-0.5h-7.6v14.3h2.9c1,0,1.9-0.1,2.6-0.3c0.7-0.2,1.3-0.5,1.8-1
		c0.5-0.5,0.9-1.2,1.3-2.1c0.4-0.9,0.7-2.1,1.1-3.5l0-0.1h0.8v15h-0.8l0-0.1c-0.2-0.9-0.4-1.8-0.7-2.6c-0.2-0.8-0.6-1.6-1-2.2
		c-0.4-0.6-1-1.1-1.6-1.5c-0.7-0.4-1.6-0.6-2.7-0.6h-3.6v16.7h8.7c1.7,0,3.1-0.4,4.2-1.1c1.1-0.7,2-1.6,2.8-2.6
		c0.7-1,1.2-2.1,1.6-3.1c0.3-1.1,0.6-2,0.7-2.7l0-0.1H173.6z"/>
	<g id="XMLID_1_">
		<g>
			<g id="XMLID_00000039129688458677520230000016070386152683040399_">
				<g id="XMLID_00000034782401620350405420000018053920405317251255_">
					<path id="XMLID_00000079452301815202174150000007321706749473439632_" class="st0" d="M177.4,50.6c0-3.4,2.8-6.1,6.1-6.1
						c3.4,0,6.1,2.8,6.1,6.1c0,3.4-2.8,6.1-6.1,6.1C180.1,56.7,177.4,54,177.4,50.6z M188.9,50.6c0-2.9-2.4-5.3-5.3-5.3
						c-2.9,0-5.3,2.4-5.3,5.3c0,2.9,2.4,5.3,5.3,5.3C186.5,55.9,188.9,53.5,188.9,50.6z"/>
					<g id="XMLID_00000042714936539298994420000001625604450892311731_">
						<path id="XMLID_00000090283569516062248490000003508977757192898723_" class="st0" d="M182.5,51.1v2.7h-0.9v-6.5h2.1
							c0.7,0,1.3,0.2,1.7,0.5c0.4,0.4,0.6,0.8,0.6,1.3c0,0.5-0.1,0.9-0.4,1.3c-0.3,0.3-0.7,0.6-1.3,0.6l1.8,2.7H185l-1.7-2.7H182.5z
							 M182.5,47.9v2.4h1.3c0.5,0,0.8-0.1,1-0.3c0.2-0.2,0.3-0.5,0.3-0.9c0-0.8-0.5-1.2-1.4-1.2H182.5z"/>
					</g>
				</g>
			</g>
		</g>
	</g>
</g>
</svg>
