<?xml version="1.0" encoding="UTF-8"?>
<svg id="Layer_1" xmlns="http://www.w3.org/2000/svg" xmlns:xlink="http://www.w3.org/1999/xlink" version="1.1" viewBox="0 0 815.2 660.6">
  <!-- Generator: Adobe Illustrator 29.8.5, SVG Export Plug-In . SVG Version: 2.1.1 Build 2)  -->
  <defs>
    <style>
      .st0, .st1 {
        fill: none;
      }

      .st2 {
        fill: #a0d300;
      }

      .st3 {
        clip-path: url(#clippath-1);
      }

      .st4 {
        fill: #fff;
      }

      .st1 {
        stroke: #fff;
        stroke-linecap: round;
        stroke-linejoin: round;
        stroke-width: 4px;
      }

      .st5 {
        fill: #282828;
      }

      .st6 {
        clip-path: url(#clippath);
      }
    </style>
    <clipPath id="clippath">
      <path class="st0" d="M207.8,268.2c0,48.9-39.7,88.6-88.6,88.6s-88.6-39.7-88.6-88.6,39.7-88.6,88.6-88.6,88.6,39.7,88.6,88.6ZM119.2,149C53.4,149,0,202.3,0,268.2s53.4,119.2,119.2,119.2,119.2-53.4,119.2-119.2-53.4-119.2-119.2-119.2Z"/>
    </clipPath>
    <clipPath id="clippath-1">
      <path class="st0" d="M784.6,268.2c0,48.9-39.7,88.6-88.6,88.6s-88.6-39.7-88.6-88.6,39.7-88.6,88.6-88.6,88.6,39.7,88.6,88.6ZM696,149c-65.8,0-119.2,53.4-119.2,119.2s53.4,119.2,119.2,119.2,119.2-53.4,119.2-119.2-53.4-119.2-119.2-119.2Z"/>
    </clipPath>
  </defs>
  <polyline class="st1" points="596.3 252.3 625.8 281.8 596.3 311.3"/>
  <g class="st6">
    <g>
      <path class="st5" d="M119.2,268.3l6.2-119.1c65.8,3.4,116.3,59.6,112.9,125.4-3.4,65.8-59.6,116.3-125.4,112.9C47.2,383.9-3.4,327.8,0,262c3.3-63.2,55.9-113,119.1-113v119.3Z"/>
      <path class="st2" d="M119.2,268.3v-119.3c2.6,0,3.6,0,6.2.2l-6.2,119.1Z"/>
    </g>
  </g>
  <g>
    <path class="st4" d="M84.1,259l-1.1-1.2c6-3.9,10-8.2,12-12.7h2.9v40.3h6.4v1.5h-19.5v-1.5h6.4v-32.2h-.1c-1.4,1.7-3.7,3.6-7,5.8Z"/>
    <path class="st4" d="M115.9,255.1c0-2.8,1-5.1,3-6.9,2-1.8,4.4-2.7,7.2-2.7s4.9.9,6.5,2.7c1.7,1.8,2.5,4,2.5,6.7s-1,5.2-2.9,7.1c-1.9,1.9-4.3,2.9-7.1,2.9s-5.1-.9-6.8-2.7c-1.6-1.8-2.5-4.2-2.5-7.1ZM119.8,255.9c0,1.9.5,3.7,1.5,5.2,1,1.5,2.4,2.3,4.2,2.3s3.6-.8,4.5-2.5c.9-1.6,1.3-3.6,1.3-5.9s-.4-3.9-1.3-5.6c-.9-1.7-2.3-2.5-4.2-2.5s-3.5.9-4.5,2.8c-1,1.9-1.5,3.9-1.5,6.1ZM124.5,287.8l26.2-42.7h2.7l-26.2,42.7h-2.6ZM143,277.7c0-2.8,1-5.1,3-6.9,2-1.8,4.4-2.7,7.2-2.7s4.9.9,6.5,2.7c1.7,1.8,2.5,4,2.5,6.7s-1,5.2-2.9,7.1c-1.9,1.9-4.3,2.9-7.1,2.9s-5.1-.9-6.8-2.7-2.5-4.2-2.5-7.1ZM146.9,278.5c0,1.9.5,3.7,1.5,5.2,1,1.5,2.4,2.3,4.2,2.3s3.6-.8,4.5-2.5c.9-1.6,1.3-3.6,1.3-5.9s-.4-3.9-1.3-5.6c-.9-1.7-2.3-2.5-4.2-2.5s-3.5.9-4.5,2.8c-1,1.9-1.5,3.9-1.5,6.1Z"/>
  </g>
  <g>
    <path class="st4" d="M656.8,288.5v-13.1h-15.3v-1.9l13.9-19.2c2.6-3.5,4.2-6.1,5-7.6h2.7v26.6h4.9v-5.1h2.1v12.4h-2.1v-5.2h-4.9v13.1h-6.3ZM644,273.3h12.8v-17.7h-.1l-12.7,17.7Z"/>
    <path class="st4" d="M680.4,253.9l-2.5,5.5-1.5-.7,4.3-10.8h20l.2,1.4-13.7,12.7h.1c1,0,2.2-.2,3.8-.2s1.6,0,2.4.3,1.7.5,2.7,1.1c1,.6,1.9,1.3,2.7,2.2.8.9,1.4,2.2,2,3.9.5,1.7.8,3.6.8,5.7,0,4.3-1.2,7.7-3.7,10.3-2.5,2.6-5.8,3.9-10.1,3.9-6.2,0-10.3-3-12.1-8.9l1.8-.6c.6,2.4,1.8,4.3,3.4,5.7,1.7,1.4,3.7,2,6.2,2s2.9-.4,4-1.1c1.1-.7,1.8-1.7,2.3-3,.5-1.3.8-2.6,1-3.8.2-1.2.2-2.6.2-4.1,0-2.4-.2-4.4-.5-5.9-.3-1.6-.8-2.7-1.3-3.5-.6-.8-1.2-1.3-1.8-1.5-.6-.3-1.4-.4-2.4-.4-1.6,0-2.8.3-3.7.8-.9.5-2.6,1.9-5,4.1l-1.2-1.2,14.6-13.8h-13Z"/>
    <path class="st4" d="M711.7,256.8c0-2.8,1-5.1,3-6.9,2-1.8,4.4-2.7,7.2-2.7s4.9.9,6.5,2.7c1.7,1.8,2.5,4,2.5,6.7s-1,5.2-2.9,7.1c-1.9,1.9-4.3,2.9-7.1,2.9s-5.1-.9-6.8-2.7c-1.6-1.8-2.5-4.2-2.5-7.1ZM715.5,257.6c0,1.9.5,3.7,1.5,5.2,1,1.5,2.4,2.3,4.2,2.3s3.6-.8,4.5-2.5c.9-1.6,1.3-3.6,1.3-5.9s-.4-3.9-1.3-5.6c-.9-1.7-2.3-2.5-4.2-2.5s-3.5.9-4.5,2.8c-1,1.9-1.5,3.9-1.5,6.1ZM720.2,289.6l26.2-42.7h2.7l-26.2,42.7h-2.6ZM738.7,279.4c0-2.8,1-5.1,3-6.9,2-1.8,4.4-2.7,7.2-2.7s4.9.9,6.5,2.7c1.7,1.8,2.5,4,2.5,6.7s-1,5.2-2.9,7.1c-1.9,1.9-4.3,2.9-7.1,2.9s-5.1-.9-6.8-2.7-2.5-4.2-2.5-7.1ZM742.6,280.2c0,1.9.5,3.7,1.5,5.2,1,1.5,2.4,2.3,4.2,2.3s3.6-.8,4.5-2.5c.9-1.6,1.3-3.6,1.3-5.9s-.4-3.9-1.3-5.6c-.9-1.7-2.3-2.5-4.2-2.5s-3.5.9-4.5,2.8c-1,1.9-1.5,3.9-1.5,6.1Z"/>
  </g>
  <g>
    <path class="st2" d="M289.1,195.3l13.8-16.4h8.1v16.9h3.7v6.5h-3.7v6.2h-8.3v-6.2h-13.7v-7ZM295.7,195.8h7.1v-9l-7.1,9Z"/>
    <path class="st2" d="M325.8,198.2c0,1.3.3,2.4,1,3.2.7.8,1.8,1.2,3.2,1.2,2.6,0,3.9-1.7,3.9-3.4,0-3.4-3.4-3.3-5.5-3.3v-5.2c2.1.2,5.2-.3,5.2-3s-1.7-2.6-3.4-2.6-3.6,1.1-3.8,3.2h-7.9c.3-6.8,5.8-9.7,12-9.7s11.4,3.2,11.4,8.3-1.1,4.7-3.4,5.8c2.7,1,4.2,3.3,4.2,6.2,0,6.9-5.2,10.4-13.1,10.4s-12.1-3.6-12-10.9h8.2Z"/>
    <path class="st2" d="M344.3,186.5c0-5,4.2-9.2,9.3-9.2s9.2,4.1,9.2,9.2-4.2,9.2-9.2,9.2-9.3-4.2-9.3-9.2ZM350,186.5c0,1.9,1.7,3.6,3.6,3.6s3.6-1.7,3.6-3.6-1.7-3.5-3.6-3.5-3.6,1.6-3.6,3.5ZM358.2,209.8h-4.2l17.8-32.7h4.2l-17.8,32.7ZM376.6,191c5.1,0,9.2,4.2,9.2,9.3s-4.1,9.2-9.2,9.2-9.3-4.1-9.3-9.2,4.2-9.3,9.3-9.3ZM376.6,203.7c1.9,0,3.5-1.6,3.5-3.5s-1.6-3.6-3.5-3.6-3.6,1.6-3.6,3.6,1.8,3.5,3.6,3.5Z"/>
    <path class="st4" d="M420.7,208.4h-5.9v-13.6c0-1.6,0-4.4-3.8-4.4s-4.6,1.8-4.6,5.2v12.8h-5.9v-22.3h5.6v3.3h0c.8-1.3,2.5-3.9,6.7-3.9s7.8,2.6,7.8,7.5v15.5Z"/>
    <path class="st4" d="M436.3,209c-6,0-11.4-3.7-11.4-11.8s5.4-11.8,11.4-11.8,11.4,3.7,11.4,11.8-5.4,11.8-11.4,11.8ZM436.3,190.5c-4.5,0-5.4,3.9-5.4,6.8s.8,6.8,5.4,6.8,5.4-3.9,5.4-6.8-.8-6.8-5.4-6.8Z"/>
    <path class="st4" d="M474.3,208.4h-6l-3.5-16.3h0l-3.5,16.3h-6.1l-6.3-22.3h6.3l3.5,16h0l3.2-16h5.9l3.4,16h0l3.5-16h6l-6.4,22.3Z"/>
    <path class="st4" d="M310,243.4c-.2,2.3-2,8.7-10.2,8.7s-10.3-6.4-10.3-11.1c0-7.2,3.2-12.4,10.7-12.4s9.3,1.6,9.9,8.6h-6c-.3-1.4-1.1-3.6-3.6-3.6h-.3c-3.7,0-4.7,3.7-4.7,6.5s0,7.3,4.5,7.3,4-2.9,4-3.9h6Z"/>
    <path class="st4" d="M324.3,252.1c-6,0-11.4-3.7-11.4-11.8s5.4-11.8,11.4-11.8,11.4,3.7,11.4,11.8-5.4,11.8-11.4,11.8ZM324.3,233.6c-4.5,0-5.4,3.9-5.4,6.8s.8,6.8,5.4,6.8,5.4-3.9,5.4-6.8-.8-6.8-5.4-6.8Z"/>
    <path class="st4" d="M371.8,251.5h-5.9v-13.6c0-3.3-1.5-4.4-3.2-4.4-2.9,0-4,1.9-4,4.6v13.4h-5.9v-13.4c0-1.9,0-4.5-3.5-4.5s-3.7,1.9-3.7,4.4v13.6h-5.9v-22.3h5.6v3.3h0c.8-1.5,2.4-3.9,6.3-3.9s4.7,1.2,6.2,3.6c.8-1.1,2.4-3.6,6-3.6s7.8,2.6,7.8,7.5v15.5Z"/>
    <path class="st4" d="M396.3,245c-1.6,5.4-6,7.1-9.8,7.1-6.3,0-11.1-3-11.1-12.2s.9-11.3,10.7-11.3,10.5,2.1,10.5,12.3v1h-15.3c.2,1.7.5,5.5,5.3,5.5s3.3-.8,3.8-2.4h6ZM390.5,238.1c-.3-3.6-2.6-4.7-4.5-4.7-2.8,0-4.2,1.8-4.6,4.7h9.1Z"/>
    <path class="st4" d="M413.1,236c-.3-1.4-.8-2.9-3.9-2.9s-3.6,1.2-3.6,2.2c0,3.5,14,1,14,9.2s-6.3,7.7-9.8,7.7c-5.1,0-10.6-1.8-10.8-7.7h6c0,1.9,1.2,3.3,4.9,3.3s3.7-1.5,3.7-2.3c0-3.7-13.9-.9-13.9-9.3s2.1-7.5,9-7.5,9.6,1.1,10,7.4h-5.8Z"/>
    <path class="st4" d="M442.3,251.5h-5.9v-18.1h-3.2v-4.2h3.2v-1.8c0-4.6,2.5-6.4,6.6-6.4s2.5,0,3,0v4.7h-1.6c-2,0-2.1.6-2.1,2.5v.9h3.8v4.2h-3.8v18.1Z"/>
    <path class="st4" d="M449.5,229.2h5.6v3.9h0c1.2-2.3,2.6-4.5,6.1-4.5s.8,0,1.1,0v6c-.5,0-1.1,0-1.7,0-4.6,0-5.4,2.9-5.4,5.3v11.6h-5.9v-22.3Z"/>
    <path class="st4" d="M475.1,252.1c-6,0-11.4-3.7-11.4-11.8s5.4-11.8,11.4-11.8,11.4,3.7,11.4,11.8-5.4,11.8-11.4,11.8ZM475.1,233.6c-4.5,0-5.4,3.9-5.4,6.8s.8,6.8,5.4,6.8,5.4-3.9,5.4-6.8-.8-6.8-5.4-6.8Z"/>
    <path class="st4" d="M522.6,251.5h-5.9v-13.6c0-3.3-1.5-4.4-3.2-4.4-2.9,0-4,1.9-4,4.6v13.4h-5.9v-13.4c0-1.9,0-4.5-3.5-4.5s-3.7,1.9-3.7,4.4v13.6h-5.9v-22.3h5.6v3.3h0c.8-1.5,2.4-3.9,6.3-3.9s4.7,1.2,6.2,3.6c.8-1.1,2.4-3.6,6-3.6s7.8,2.6,7.8,7.5v15.5Z"/>
    <path class="st4" d="M303.4,279.1c-.3-1.4-.8-2.9-3.9-2.9s-3.6,1.2-3.6,2.2c0,3.5,14,1,14,9.2s-6.3,7.7-9.8,7.7c-5.1,0-10.6-1.8-10.8-7.7h6c0,1.9,1.2,3.3,4.9,3.3s3.7-1.5,3.7-2.3c0-3.7-13.9-.9-13.9-9.3s2.1-7.5,9-7.5,9.6,1.1,10,7.4h-5.8Z"/>
    <path class="st4" d="M324.3,295.2c-6,0-11.4-3.7-11.4-11.8s5.4-11.8,11.4-11.8,11.4,3.7,11.4,11.8-5.4,11.8-11.4,11.8ZM324.3,276.7c-4.5,0-5.4,3.9-5.4,6.8s.8,6.8,5.4,6.8,5.4-3.9,5.4-6.8-.8-6.8-5.4-6.8Z"/>
    <path class="st4" d="M345.8,294.6h-5.9v-30.2h5.9v30.2Z"/>
    <path class="st4" d="M369.6,290.3c0,2.6.6,3.2,1.3,3.5v.9h-6.3c-.3-1-.4-1.4-.5-2.6-1.3,1.4-3.2,3.2-7.2,3.2s-6.8-1.9-6.8-6.5,2.8-6.6,6.5-7.1l5.3-.8c.9-.1,2.1-.5,2.1-1.8,0-2.5-2.4-2.6-3.9-2.6-2.9,0-3.4,1.8-3.6,3.1h-5.7c.7-6.8,5.4-7.8,10-7.8s8.9,1,8.9,6.5v12.1ZM363.8,283.8c-.6.5-1.6.8-4,1.2-2.2.4-4,.9-4,3.4s1.6,2.7,2.7,2.7c2.6,0,5.3-1.7,5.3-4.4v-2.9Z"/>
    <path class="st4" d="M374.8,272.3h5.6v3.9h0c1.2-2.3,2.6-4.5,6.1-4.5s.8,0,1.1,0v6c-.5,0-1.1,0-1.7,0-4.6,0-5.4,2.9-5.4,5.3v11.6h-5.9v-22.3Z"/>
    <path class="st4" d="M422,288.1c-1.6,5.4-6,7.1-9.8,7.1-6.3,0-11.1-3-11.1-12.2s.9-11.3,10.7-11.3,10.5,2.1,10.5,12.3v1h-15.3c.2,1.7.5,5.5,5.2,5.5s3.3-.8,3.8-2.4h6ZM416.2,281.2c-.3-3.6-2.6-4.7-4.5-4.7-2.8,0-4.2,1.8-4.6,4.7h9.1Z"/>
    <path class="st4" d="M446.4,294.6h-5.9v-13.6c0-1.6,0-4.4-3.8-4.4s-4.6,1.8-4.6,5.2v12.8h-5.9v-22.3h5.6v3.3h0c.8-1.3,2.5-3.9,6.7-3.9s7.8,2.6,7.8,7.5v15.5Z"/>
    <path class="st4" d="M471.1,288.1c-1.6,5.4-6,7.1-9.8,7.1-6.3,0-11.1-3-11.1-12.2s.9-11.3,10.7-11.3,10.5,2.1,10.5,12.3v1h-15.3c.2,1.7.5,5.5,5.2,5.5s3.3-.8,3.8-2.4h6ZM465.3,281.2c-.3-3.6-2.6-4.7-4.5-4.7-2.8,0-4.2,1.8-4.6,4.7h9.1Z"/>
    <path class="st4" d="M475.2,272.3h5.6v3.9h0c1.2-2.3,2.6-4.5,6.1-4.5s.8,0,1.1,0v6c-.5,0-1.1,0-1.7,0-4.6,0-5.4,2.9-5.4,5.3v11.6h-5.9v-22.3Z"/>
    <path class="st4" d="M511.4,272.3v21.2c0,3.9-.3,10.3-11.3,10.3s-9.5-2-9.7-6.7h6.4c.3,1.1.7,2.3,4.1,2.3s4.7-1.5,4.7-5.1v-2.7h0c-1,1.6-2.4,3.3-6,3.3-5.4,0-9.6-3.7-9.6-11.6s4.4-11.5,9.3-11.5,5.8,2.4,6.6,3.9h0v-3.3h5.6ZM500.6,289.8c4,0,5-3.4,5-6.5s-1.8-6.6-5-6.6-4.6,1.6-4.6,6.8,1.2,6.2,4.7,6.2Z"/>
    <path class="st4" d="M528,294.3c-2.8,8.3-3.5,9.4-8.7,9.4s-1.8,0-2.6,0v-4.7c.3,0,.6,0,1.1,0,2.1,0,3.3-.3,3.9-3.4l-8.2-23.3h6.6l4.8,16.5h0l4.6-16.5h6.2l-7.7,22Z"/>
    <path class="st4" d="M293.1,342.7c-2.1-2.9-4.2-6.6-4.2-11.3s2-8.4,4.2-11.4h2.5c-1.8,3.1-3.2,6.4-3.2,11.4s1.5,8.2,3.2,11.3h-2.5Z"/>
    <path class="st4" d="M309.1,337.7h-3.2v-1.8h0c-.8,1.4-2.1,2.1-3.9,2.1-2.5,0-4.3-1.4-4.3-4.7v-8.4h3.4v7.9c0,2,1.2,2.4,2.2,2.4s2.6-.6,2.6-2.9v-7.4h3.4v12.8Z"/>
    <path class="st4" d="M315.4,326.8h0c.6-1,1.6-2.2,3.8-2.2s5.3,2.2,5.3,6.6-1.6,6.9-5.4,6.9-3.2-1.3-3.6-2h0v6.6h-3.4v-17.7h3.2v1.8ZM318.4,335.3c2.2,0,2.8-2.4,2.8-3.9s-.7-3.9-2.9-3.9-2.9,2.1-2.9,4.1.8,3.7,3,3.7Z"/>
    <path class="st4" d="M337.5,337.7h-3.4v-10.4h-1.8v-2.4h1.8v-1c0-2.6,1.4-3.6,3.7-3.6s1.4,0,1.7,0v2.7h-.9c-1.2,0-1.2.4-1.2,1.4v.5h2.2v2.4h-2.2v10.4Z"/>
    <path class="st4" d="M341.6,325h3.2v2.2h0c.7-1.3,1.5-2.5,3.5-2.5s.4,0,.6,0v3.4c-.3,0-.6,0-1,0-2.6,0-3.1,1.6-3.1,3v6.6h-3.4v-12.8Z"/>
    <path class="st4" d="M356.2,338.1c-3.4,0-6.5-2.1-6.5-6.7s3.1-6.7,6.5-6.7,6.5,2.1,6.5,6.7-3.1,6.7-6.5,6.7ZM356.2,327.5c-2.6,0-3.1,2.3-3.1,3.9s.5,3.9,3.1,3.9,3.1-2.3,3.1-3.9-.5-3.9-3.1-3.9Z"/>
    <path class="st4" d="M383.4,337.7h-3.4v-7.8c0-1.9-.8-2.5-1.8-2.5-1.7,0-2.3,1.1-2.3,2.6v7.7h-3.4v-7.7c0-1.1,0-2.6-2-2.6s-2.1,1.1-2.1,2.5v7.8h-3.4v-12.8h3.2v1.9h0c.4-.8,1.4-2.2,3.6-2.2s2.7.7,3.6,2c.4-.6,1.4-2,3.4-2s4.4,1.5,4.4,4.3v8.8Z"/>
    <path class="st2" d="M392.9,337.7c0-2,.7-3.4,2-4.8,2.8-3,7.3-4.1,7.3-6.9s-1-1.7-2-1.7c-1.9,0-2.5,1.6-2.4,3.2h-4.5c0-5,2.8-7,7.2-7s6.8,1.5,6.8,5.5-2.3,4.2-4.5,5.6c-1.2.8-2.5,1.4-3.4,2h7.8v4.1h-14.2Z"/>
    <path class="st2" d="M408.9,324.9v-4.1h13.6v3.8c-3,2.5-5.4,7.4-5.6,13.1h-5.2c.5-5.7,2.9-9.8,5.8-12.8h-8.7Z"/>
    <path class="st2" d="M423.7,325.2c0-2.9,2.4-5.3,5.3-5.3s5.3,2.4,5.3,5.3-2.4,5.3-5.3,5.3-5.3-2.4-5.3-5.3ZM427,325.2c0,1.1,1,2,2.1,2s2-1,2-2-1-2-2-2-2.1.9-2.1,2ZM431.7,338.5h-2.4l10.2-18.7h2.4l-10.2,18.7ZM442.2,327.8c2.9,0,5.3,2.4,5.3,5.3s-2.4,5.2-5.3,5.2-5.3-2.3-5.3-5.2,2.4-5.3,5.3-5.3ZM442.2,335.1c1.1,0,2-.9,2-2s-.9-2-2-2-2.1.9-2.1,2,1,2,2.1,2Z"/>
    <path class="st4" d="M459.3,323.5h-3.4v-3.1h3.4v3.1ZM459.3,325v12.8h-3.4v-12.8h3.4Z"/>
    <path class="st4" d="M474,337.7h-3.4v-7.8c0-.9,0-2.5-2.2-2.5s-2.6,1-2.6,3v7.3h-3.4v-12.8h3.2v1.9h0c.5-.8,1.4-2.2,3.8-2.2s4.4,1.5,4.4,4.3v8.8Z"/>
    <path class="st4" d="M483.1,326.7c0-5.5,4.1-6,5.6-6,3.3,0,5.9,1.9,5.9,5.4s-1.9,4.4-3.6,5.5c-2.3,1.6-3.4,2.4-3.8,3.1h7.4v3h-11.6c.1-2,.3-4.1,4-6.8,3.1-2.2,4.3-3.1,4.3-5s-.7-2.4-2.4-2.4c-2.4,0-2.4,1.9-2.4,3.2h-3.3Z"/>
    <path class="st4" d="M502.3,320.7c4,0,5.9,2.8,5.9,8.7s-1.9,8.8-5.9,8.8-5.9-2.8-5.9-8.8,1.9-8.7,5.9-8.7ZM502.3,335.5c1.9,0,2.4-1.7,2.4-6.1s-.5-6-2.4-6-2.4,1.7-2.4,6,.5,6.1,2.4,6.1Z"/>
    <path class="st4" d="M509.8,326.7c0-5.5,4.1-6,5.6-6,3.3,0,5.9,1.9,5.9,5.4s-1.9,4.4-3.6,5.5c-2.3,1.6-3.4,2.4-3.8,3.1h7.4v3h-11.6c.1-2,.3-4.1,4-6.8,3.1-2.2,4.3-3.1,4.3-5s-.7-2.4-2.4-2.4c-2.4,0-2.4,1.9-2.4,3.2h-3.3Z"/>
    <path class="st4" d="M527.4,327.9h.5c1,0,2.9,0,2.9-2.3s-.3-2.2-2.1-2.2-2.3,2.2-2.3,2.8h-3.1c0-3.2,1.8-5.5,5.6-5.5s5.3,1.2,5.3,4.8-1.1,2.8-2,3.2h0c.6.2,2.6,1.1,2.6,4s-2.4,5.5-5.8,5.5-5.9-.4-5.9-5.7h3.3,0c0,.9.2,3,2.5,3s2.5-.9,2.5-2.8-2.3-2.4-3.8-2.4v-2.4Z"/>
    <path class="st4" d="M538.6,320.1c2.1,2.9,4.2,6.6,4.2,11.3s-2,8.4-4.2,11.4h-2.5c1.8-3.1,3.2-6.4,3.2-11.4s-1.5-8.2-3.2-11.3h2.5Z"/>
  </g>
  <g>
    <path class="st4" d="M434.3,99.2c-19.8,0-35.9-16.1-35.9-35.9s16.1-35.9,35.9-35.9,35.9,16.1,35.9,35.9-16.1,35.9-35.9,35.9ZM434.3,33.1c-16.6,0-30.2,13.5-30.2,30.2s13.5,30.2,30.2,30.2,30.2-13.5,30.2-30.2-13.5-30.2-30.2-30.2Z"/>
    <path class="st4" d="M491.8,66.1h-8.6c-1.6,0-2.9-1.3-2.9-2.9s1.3-2.9,2.9-2.9h8.6c1.6,0,2.9,1.3,2.9,2.9s-1.3,2.9-2.9,2.9Z"/>
    <path class="st4" d="M494.7,66.1h-11.4c-1.1-.9-1.8-1.4-2.9-2.3-.4-1.8,1-3.4,2.8-3.4h11.4c1.1.9,1.8,1.4,2.9,2.3.4,1.8-1,3.4-2.8,3.4Z"/>
    <path class="st4" d="M382.6,66.1h-8.6c-1.6,0-2.9-1.3-2.9-2.9s1.3-2.9,2.9-2.9h8.6c1.6,0,2.9,1.3,2.9,2.9s-1.3,2.9-2.9,2.9Z"/>
    <path class="st4" d="M385.5,66.1h-11.5c-1.6,0-2.9-1.3-2.9-2.9s1.3-2.9,2.9-2.9h11.5c1.6,0,2.9,1.3,2.9,2.9s-1.3,2.9-2.9,2.9Z"/>
    <path class="st4" d="M434.3,123.6c-1.6,0-2.9-1.3-2.9-2.9v-8.6c0-1.6,1.3-2.9,2.9-2.9s2.9,1.3,2.9,2.9v8.6c0,1.6-1.3,2.9-2.9,2.9Z"/>
    <path class="st4" d="M434.3,126.5c-1.6,0-2.9-1.3-2.9-2.9v-11.5c0-1.6,1.3-2.9,2.9-2.9s2.9,1.3,2.9,2.9v11.5c0,1.6-1.3,2.9-2.9,2.9Z"/>
    <path class="st4" d="M434.3,14.4c-1.6,0-2.9-1.3-2.9-2.9V2.9c0-1.6,1.3-2.9,2.9-2.9s2.9,1.3,2.9,2.9v8.6c0,1.6-1.3,2.9-2.9,2.9Z"/>
    <path class="st4" d="M434.3,17.3c-1.6,0-2.9-1.3-2.9-2.9V2.9c0-1.6,1.3-2.9,2.9-2.9s2.9,1.3,2.9,2.9v11.5c0,1.6-1.3,2.9-2.9,2.9Z"/>
    <path class="st4" d="M475.7,107.5c-.7,0-1.5-.3-2-.8l-7.5-7.5c-1.1-1.1-1.1-2.9,0-4.1,1.1-1.1,2.9-1.1,4.1,0l7.5,7.5c1.1,1.1,1.1,2.9,0,4.1s-1.3.8-2,.8Z"/>
    <path class="st4" d="M477.5,109.3c-.7,0-1.5-.3-2-.8l-9.4-9.4c-1.1-1.1-1.1-2.9,0-4.1,1.1-1.1,2.9-1.1,4.1,0l9.4,9.4c1.1,1.1,1.1,2.9,0,4.1s-1.3.8-2,.8Z"/>
    <path class="st4" d="M398.6,30.4c-.7,0-1.5-.3-2-.8l-7.5-7.5c-1.1-1.1-1.1-2.9,0-4.1,1.1-1.1,2.9-1.1,4.1,0l7.5,7.5c1.1,1.1,1.1,2.9,0,4.1-.6.6-1.3.8-2,.8Z"/>
    <path class="st4" d="M400.5,32.3c-.7,0-1.5-.3-2-.8l-9.4-9.4c-1.1-1.1-1.1-2.9,0-4.1,1.1-1.1,2.9-1.1,4.1,0l9.4,9.4c1.1,1.1,1.1,2.9,0,4.1-.6.6-1.3.8-2,.8Z"/>
    <path class="st4" d="M393,107.5c-.7,0-1.5-.3-2-.8-1.1-1.1-1.1-2.9,0-4.1l7.5-7.5c1.1-1.1,2.9-1.1,4.1,0,1.1,1.1,1.1,2.9,0,4.1l-7.5,7.5c-.6.6-1.3.8-2,.8Z"/>
    <path class="st4" d="M391.1,109.3c-.7,0-1.5-.3-2-.8-1.1-1.1-1.1-2.9,0-4.1l9.4-9.4c1.1-1.1,2.9-1.1,4.1,0,1.1,1.1,1.1,2.9,0,4.1l-9.4,9.4c-.6.6-1.3.8-2,.8Z"/>
    <path class="st4" d="M470,30.4c-.7,0-1.5-.3-2-.8-1.1-1.1-1.1-2.9,0-4.1l7.5-7.5c1.1-1.1,2.9-1.1,4.1,0,1.1,1.1,1.1,2.9,0,4.1l-7.5,7.5c-.6.6-1.3.8-2,.8Z"/>
    <path class="st4" d="M468.1,32.3c-.7,0-1.5-.3-2-.8-1.1-1.1-1.1-2.9,0-4.1l9.4-9.4c1.1-1.1,2.9-1.1,4.1,0,1.1,1.1,1.1,2.9,0,4.1l-9.4,9.4c-.6.6-1.3.8-2,.8Z"/>
  </g>
  <path class="st4" d="M524.5,136l21.4,7.1c.5.2,1.1-.1,1.3-.6.2-.5-.1-1.1-.6-1.3l-25.2-8.3c-.1,0-.2-.2-.3-.3-.4-.4-1-.4-1.4,0-.2.2-.3.5-.3.8,0,.2,0,.3,0,.5l8.7,25.8c.2.5.7.8,1.3.6.5-.2.8-.7.6-1.3h0s-7.5-22.3-7.5-22.3c73.1,72.5,109.8,167.9,109.8,263.5,0,93.2-34.9,186.4-104.9,258.5-.4.4-.4,1,0,1.4.4.4,1,.4,1.4,0,70.4-72.5,105.4-166.3,105.4-259.9,0-95.8-36.7-191.6-109.8-264.3Z"/>
  <g class="st3">
    <g>
      <path class="st5" d="M696,268.2l52.3,107.1c-59.2,28.9-130.5,4.3-159.4-54.9-28.9-59.2-4.3-130.5,54.9-159.4,16.6-8.1,33.8-12.1,52.3-12.1v119.2Z"/>
      <path class="st2" d="M696,268.2v-119.2c65.8,0,119.2,53.4,119.2,119.2s-24.3,86.4-66.9,107.1l-52.3-107.1Z"/>
    </g>
  </g>
</svg>